<svg width="19" height="19" viewBox="0 0 19 19" fill="none" xmlns="http://www.w3.org/2000/svg">
<g clip-path="url(#clip0_1_108)">
<path d="M9.49968 15.8333C11.1794 15.8333 12.7903 15.1661 13.978 13.9783C15.1657 12.7906 15.833 11.1797 15.833 9.5C15.833 7.82029 15.1657 6.20939 13.978 5.02166C12.7903 3.83393 11.1794 3.16667 9.49968 3.16667C7.81997 3.16667 6.20906 3.83393 5.02133 5.02166C3.8336 6.20939 3.16634 7.82029 3.16634 9.5C3.16634 11.1797 3.8336 12.7906 5.02133 13.9783C6.20906 15.1661 7.81997 15.8333 9.49968 15.8333ZM9.49968 17.4167C5.1273 17.4167 1.58301 13.8724 1.58301 9.5C1.58301 5.12762 5.1273 1.58333 9.49968 1.58333C13.8721 1.58333 17.4163 5.12762 17.4163 9.5C17.4163 13.8724 13.8721 17.4167 9.49968 17.4167ZM7.03759 10.4262L5.06001 9.80954C4.63251 9.67892 4.63013 9.38442 5.1558 9.17304L12.8611 6.19637C13.3084 6.01429 13.5617 6.24467 13.4168 6.82179L12.1051 13.0126C12.0132 13.4536 11.748 13.5589 11.3799 13.3554L9.36034 11.8608L8.41905 12.7696C8.32247 12.863 8.24409 12.943 8.09526 12.9628C7.94722 12.9833 7.8253 12.939 7.73584 12.6936L7.04709 10.4207L7.03759 10.4262Z" fill="#E0BEA2"/>
</g>
<defs>
<clipPath id="clip0_1_108">
<rect width="19" height="19" fill="white"/>
</clipPath>
</defs>
</svg>
